<?xml version="1.0" standalone="no"?><svg xmlns="http://www.w3.org/2000/svg" viewBox="0 0 1440 220"><path fill="#08090b" fill-opacity="1" d="M0,128L30,112C60,96,120,64,180,69.3C240,75,300,117,360,128C420,139,480,117,540,101.3C600,85,660,75,720,69.3C780,64,840,64,900,85.3C960,107,1020,149,1080,176C1140,203,1200,213,1260,192C1320,171,1380,117,1410,90.7L1440,64L1440,0L1410,0C1380,0,1320,0,1260,0C1200,0,1140,0,1080,0C1020,0,960,0,900,0C840,0,780,0,720,0C660,0,600,0,540,0C480,0,420,0,360,0C300,0,240,0,180,0C120,0,60,0,30,0L0,0Z"></path></svg>